<?xml version="1.0" encoding="utf-8"?>
<!-- Generator: Adobe Illustrator 23.0.2, SVG Export Plug-In . SVG Version: 6.00 Build 0)  -->
<svg version="1.1" id="Ebene_1" xmlns="http://www.w3.org/2000/svg" xmlns:xlink="http://www.w3.org/1999/xlink" x="0px" y="0px"
	 viewBox="0 0 398.4 102.4" style="enable-background:new 0 0 398.4 102.4;" xml:space="preserve">
<style type="text/css">
	.st0{fill:#E30613;}
	.st1{fill:#004F9F;}
</style>
<path class="st0" d="M102.1,24.8H62.8L44.3,68.9H1.2l29.1,33.5l66.8-40.1h-9.8L102.1,24.8z M68.8,62.1l-3-18.6L58,62.2h-7l14.7-34.7
	h13.7l1.6,22.1l8.7-22.1H97L83.2,62.1H68.8z"/>
<polygon class="st1" points="120.2,35.4 110.8,35.4 113.6,28.3 142.8,28.2 140,35.3 130.5,35.3 119.1,64.1 108.8,64.1 "/>
<path class="st1" d="M151,36.6c-11.1,0.1-19.4,6.5-21,15.9c-1.1,6.7,2.2,12.2,12.6,12.1c10.6-0.1,19.1-5,21-16.1
	C164.9,41.7,160.7,36.5,151,36.6z M153.6,48.4c-1,6.1-4.5,9.7-9.1,9.7c-3.3,0.1-4.9-2.3-4.3-5.9c0.7-4.3,4.5-9.1,9.2-9.1
	C153.2,43,154.1,45.6,153.6,48.4z"/>
<path class="st1" d="M182.2,37l-2,5.5l0.1,0c2.1-3.1,5.8-6.1,9.8-6.2c1.3,0,2.8,0.1,4,0.6l-3.6,8.2c-1.1-0.9-2.5-1.1-4.3-1.1
	c-4.1,0-7.2,3.4-8.5,7.4l-4.9,12.3l-9.8,0.1l7.8-19.8c0.9-2.3,1.7-4.6,2.4-7L182.2,37z"/>
<polygon class="st1" points="204.3,34.9 194.9,34.9 197.7,27.8 226.9,27.7 224.1,34.8 214.6,34.8 203.2,63.6 192.9,63.6 "/>
<path class="st1" d="M235.5,36.1c-12.6,0.1-18.6,9.6-19.7,15.9c-1.1,6.7,3,12.2,12.5,12.1c2.8,0,6.6-0.6,10.1-1.5l2.4-6.5
	c-2.9,1.2-6.6,1.9-9.2,1.9c-6,0-7.1-2.2-6.7-5.1l20.1-0.1c0.7-1.6,1.4-4,1.6-5C248,39.5,243,36,235.5,36.1z M238.4,47.5l-12,0.1
	c1.1-2.6,3.9-5.3,8.1-5.3C238.2,42.2,238.9,44.6,238.4,47.5z"/>
<path class="st1" d="M267.8,62.8c-2.1,0.6-4.7,1.1-8.5,1.1c-8.3,0-12.4-5.4-11.3-12.1c1.5-8.8,10.1-15.8,21-15.9
	c2.4,0,5.9,0.6,8.6,1.7l-3.2,6.4c-1.9-0.9-3.9-1.4-6.1-1.4c-5.1,0-9.2,3.1-10.1,8.7c-0.5,3.2,1.6,5.8,5.8,5.8c2.4,0,4.2-0.4,6.5-1.2
	L267.8,62.8z"/>
<path class="st1" d="M287.5,24.6l9.9-0.1l-6.2,15.7l0.1,0c2.4-2.5,6-4.5,10.6-4.6c5.7,0,8.1,4,7.2,9.2c-0.3,1.8-0.6,2.8-1.7,5.6
	L302.8,63l-10.1,0.1l4.9-12.5c0.5-1.3,1.1-2.7,1.3-4.1c0.3-1.6-0.5-3.2-3.3-3.1c-4.1,0-7.2,3.4-8.5,7.4l-4.9,12.3l-9.8,0.1
	L287.5,24.6z"/>
<path class="st1" d="M315.3,43.2c0.9-2.3,1.7-4.6,2.4-7l9.1-0.1l-1.5,4.4l0.1,0c3.3-3,6.6-5,11.8-5c5.7,0,8.1,4,7.2,9.2
	c-0.3,1.8-0.6,2.8-1.7,5.6l-4.7,12.5l-10.1,0.1l4.9-12.5c0.5-1.3,1.1-2.7,1.3-4.1c0.3-1.6-0.5-3.2-3.3-3.1c-4.1,0-7.2,3.4-8.5,7.4
	l-4.9,12.3l-9.8,0.1L315.3,43.2z"/>
<polygon class="st1" points="354.2,36 364.1,35.9 353.6,62.7 343.8,62.8 "/>
<polygon class="st1" points="358.6,24.8 368.5,24.8 365.8,31.6 355.9,31.6 "/>
<polygon class="st1" points="375.1,24.1 385,24.1 375.8,47.1 375.9,47.1 387.2,35.8 398.4,35.7 384.5,48.7 389.5,62.5 378.6,62.5 
	375,49.3 374.9,49.3 369.7,62.6 359.7,62.7 "/>
<path class="st0" d="M32.4,34.2H28l-2.8,6.6l5.5,0.1c3.7,0,3.9-1.3,4.7-3.5C36.1,35.2,35.2,34.3,32.4,34.2z"/>
<path class="st0" d="M68.9,0L5.6,27h10.9L0,64.9h41.3L59.8,21h42.9L68.9,0z M49,35.6c-2.2,6.6-6.7,7.6-12.4,8.2l0,0.1
	c4.7,0.6,7.6,2.8,6.4,7.1c-3.1,11.6-10.3,10.2-15.4,10.2L5.7,61.2l14.7-33.7h19.3C46.7,27.3,51,29.5,49,35.6z"/>
<path class="st0" d="M27.2,46.8l-4.5-0.1l-3.3,7.7l5.9-0.1c2.2-0.1,3.1-0.4,4.3-3.4C30.9,47.7,29.3,46.7,27.2,46.8z"/>
</svg>
